<?xml version="1.0" encoding="UTF-8" standalone="no"?>
<!-- Created with Inkscape (http://www.inkscape.org/) -->

<svg
   xmlns:dc="http://purl.org/dc/elements/1.1/"
   xmlns:cc="http://creativecommons.org/ns#"
   xmlns:rdf="http://www.w3.org/1999/02/22-rdf-syntax-ns#"
   xmlns:svg="http://www.w3.org/2000/svg"
   xmlns="http://www.w3.org/2000/svg"
   xmlns:sodipodi="http://sodipodi.sourceforge.net/DTD/sodipodi-0.dtd"
   xmlns:inkscape="http://www.inkscape.org/namespaces/inkscape"
   width="210mm"
   height="297mm"
   viewBox="0 0 210 297"
   version="1.1"
   id="svg8"
   inkscape:version="0.92.4 (5da689c313, 2019-01-14)"
   sodipodi:docname="bizum.svg">
  <defs
     id="defs2" />
  <sodipodi:namedview
     id="base"
     pagecolor="#ffffff"
     bordercolor="#666666"
     borderopacity="1.0"
     inkscape:pageopacity="0.0"
     inkscape:pageshadow="2"
     inkscape:zoom="0.9899495"
     inkscape:cx="286.39242"
     inkscape:cy="695.11717"
     inkscape:document-units="mm"
     inkscape:current-layer="g1072"
     showgrid="false"
     inkscape:window-width="1440"
     inkscape:window-height="837"
     inkscape:window-x="-8"
     inkscape:window-y="-8"
     inkscape:window-maximized="1" />
  <metadata
     id="metadata5">
    <rdf:RDF>
      <cc:Work
         rdf:about="">
        <dc:format>image/svg+xml</dc:format>
        <dc:type
           rdf:resource="http://purl.org/dc/dcmitype/StillImage" />
        <dc:title />
      </cc:Work>
    </rdf:RDF>
  </metadata>
  <g
     inkscape:label="Capa 1"
     inkscape:groupmode="layer"
     id="layer1">
    <g
       id="g1072"
       transform="translate(1.2974725,42.257357)">
      <path
         style="fill:#115b99;stroke-width:0.60003722"
         d="M 95.464972,153.67536 C 79.117265,151.13137 64.094054,140.57641 55.881008,125.86458 54.755152,123.84787 53.016783,119.75455 52.017964,116.76833 42.511182,88.345377 57.901861,57.71215 86.493576,48.14892 106.47357,41.466101 128.57748,46.973051 143.202,62.27721 c 10.65979,11.155172 15.17751,22.204035 15.17751,37.119201 0,25.185569 -17.0739,47.219839 -41.17766,53.140729 -5.69849,1.39979 -16.4412,1.96231 -21.736878,1.13822 z m 28.229018,-26.64997 c 2.94801,-2.948 1.01864,-8.12777 -3.02746,-8.12777 -0.73604,0 -2.0497,0.55963 -2.91926,1.24363 -1.21949,0.95925 -1.58101,1.77253 -1.58101,3.55667 0,4.24138 4.58647,6.26874 7.52773,3.32747 z m -15.09677,-3.40541 c 2.31098,-1.05295 8.16907,-9.56308 8.16907,-11.86732 0,-3.72375 -4.06255,-6.02605 -7.00126,-3.9677 -1.84042,1.28908 -7.23631,8.7529 -7.71944,10.67787 -0.48545,1.93416 0.8954,4.41988 2.90495,5.22933 1.76854,0.71237 1.93187,0.70915 3.64668,-0.0722 z m -12.945162,-5.17239 c 0.671052,-0.57753 6.236302,-8.03082 12.367242,-16.56286 12.04453,-16.761637 12.48829,-17.702742 9.67432,-20.516706 -1.74948,-1.749486 -4.44167,-1.931256 -6.26124,-0.422756 -0.69664,0.577536 -6.25465,7.935492 -12.351151,16.351013 -9.195966,12.693999 -11.087278,15.652179 -11.100628,17.362409 -0.0318,4.07352 4.65255,6.38711 7.671457,3.7889 z m 2.067914,-26.701653 c 1.504839,-1.146731 7.038858,-8.973478 7.432878,-10.512297 0.74838,-2.922709 -1.94176,-6.138735 -5.13491,-6.138735 -1.760376,0 -3.836121,2.014229 -7.186501,6.973512 -3.416605,5.057318 -3.58599,6.433047 -1.117635,9.077483 1.409253,1.509784 4.417888,1.810354 6.006168,0.600037 z M 89.583594,79.59444 c 2.477668,-1.735427 2.285206,-5.894357 -0.367013,-7.930667 -0.523628,-0.402025 -1.782542,-0.739546 -2.797583,-0.750047 -4.008885,-0.04146 -6.15394,5.482288 -3.254788,8.38144 1.434467,1.434467 4.588725,1.581518 6.419384,0.299274 z"
         id="path1074"
         inkscape:connector-curvature="0" />
      <path
         style="opacity:1;fill:#30b6c3;fill-opacity:1;fill-rule:evenodd;stroke:#30b6c3;stroke-width:2.98750639;stroke-linecap:round;stroke-linejoin:round;stroke-miterlimit:4;stroke-dasharray:none;stroke-opacity:1;paint-order:markers stroke fill"
         d="m -759.49347,434.37563 c -4.77336,-1.49254 -8.43407,-5.12667 -10.04269,-9.96977 -1.25559,-3.78024 -0.83852,-10.36552 0.89556,-14.14037 1.67542,-3.64716 4.94809,-7.20368 8.20551,-8.9172 2.20577,-1.16031 3.15258,-1.33938 7.09134,-1.34115 6.05456,-0.003 9.10998,1.06657 12.29591,4.30315 4.50037,4.57192 6.76503,11.52245 5.67519,17.4179 -1.57309,8.50964 -8.04759,13.41414 -17.61124,13.34071 -2.42026,-0.0186 -5.34957,-0.33055 -6.50958,-0.69327 z"
         id="path1082"
         inkscape:connector-curvature="0"
         transform="matrix(0.26458333,0,0,0.26458333,285.75,-34.77381)" />
      <path
         style="opacity:1;fill:#30b6c3;fill-opacity:1;fill-rule:evenodd;stroke:#30b6c3;stroke-width:2.98750639;stroke-linecap:round;stroke-linejoin:round;stroke-miterlimit:4;stroke-dasharray:none;stroke-opacity:1;paint-order:markers stroke fill"
         d="m -726.35433,479.77892 c -3.04688,-0.93889 -5.9347,-2.96203 -8.5038,-5.95756 -6.98137,-8.14019 -6.0664,-14.06373 4.65437,-30.13238 9.30963,-13.95359 17.07312,-23.06525 22.3779,-26.26396 2.6406,-1.59224 3.29126,-1.76577 6.55295,-1.74767 6.90042,0.0383 13.78039,4.73147 17.22802,11.75212 1.18848,2.42018 1.41182,3.5142 1.41182,6.9156 0,4.97392 -0.80127,6.72293 -8.09093,17.66077 -10.76297,16.1494 -18.39998,25.34818 -22.71872,27.36469 -2.98005,1.39145 -9.09382,1.58482 -12.91161,0.40839 z"
         id="path1092"
         inkscape:connector-curvature="0"
         transform="matrix(0.26458333,0,0,0.26458333,285.75,-34.77381)" />
      <path
         style="opacity:1;fill:#30b6c3;fill-opacity:1;fill-rule:evenodd;stroke:#30b6c3;stroke-width:2.98750639;stroke-linecap:round;stroke-linejoin:round;stroke-miterlimit:4;stroke-dasharray:none;stroke-opacity:1;paint-order:markers stroke fill"
         d="m -733.934,582.42963 c -7.53526,-2.13037 -12.50475,-8.27018 -12.98093,-16.03796 -0.20743,-3.38372 -0.0662,-4.2183 1.23891,-7.3236 2.74535,-6.53193 12.90058,-21.74922 34.04588,-51.01671 20.4408,-28.29236 40.11586,-54.76639 48.28361,-64.96859 4.24008,-5.29622 5.08102,-6.0818 8.10298,-7.5695 2.92052,-1.43777 3.88221,-1.65848 7.18409,-1.64876 3.06063,0.009 4.39329,0.27993 6.75976,1.37423 5.37162,2.48394 9.63149,6.87078 10.94129,11.26741 1.95059,6.54758 -3.9046,17.00324 -30.24228,54.00391 -24.59287,34.54947 -52.14142,71.8155 -56.84282,76.89357 -4.43374,4.78897 -10.63919,6.68028 -16.49049,5.026 z"
         id="path1094"
         inkscape:connector-curvature="0"
         transform="matrix(0.26458333,0,0,0.26458333,285.75,-34.77381)" />
      <path
         style="opacity:1;fill:#30b6c3;fill-opacity:1;fill-rule:evenodd;stroke:#30b6c3;stroke-width:2.98750639;stroke-linecap:round;stroke-linejoin:round;stroke-miterlimit:4;stroke-dasharray:none;stroke-opacity:1;paint-order:markers stroke fill"
         d="m -680.91913,599.56847 c -6.06436,-2.14078 -9.2802,-5.04413 -11.96649,-10.80367 -1.06596,-2.28546 -1.34886,-3.64302 -1.34047,-6.43238 0.009,-3.06077 0.25566,-4.01029 1.83521,-7.07107 4.78992,-9.28162 19.09035,-28.72933 25.38088,-34.51646 3.57821,-3.29186 6.30748,-4.3593 11.14597,-4.3593 4.91645,0 7.63737,1.09342 11.34053,4.55729 3.11133,2.91029 5.01797,6.77968 5.40534,10.96978 0.25198,2.72559 0.0811,3.68844 -1.28009,7.2105 -3.53121,9.13728 -15.92944,27.23916 -23.87065,34.85202 -3.33972,3.20164 -4.96617,4.35653 -7.6466,5.42957 -4.12368,1.65083 -4.75829,1.66236 -9.00363,0.16372 z"
         id="path1096"
         inkscape:connector-curvature="0"
         transform="matrix(0.26458333,0,0,0.26458333,285.75,-34.77381)" />
      <path
         style="opacity:1;fill:#30b6c3;fill-opacity:1;fill-rule:evenodd;stroke:#30b6c3;stroke-width:2.98750639;stroke-linecap:round;stroke-linejoin:round;stroke-miterlimit:4;stroke-dasharray:none;stroke-opacity:1;paint-order:markers stroke fill"
         d="m -629.49769,615.7269 c -4.80549,-1.79011 -8.74675,-5.90183 -10.22386,-10.66605 -0.46539,-1.50104 -0.77892,-4.35661 -0.77297,-7.04007 0.008,-3.81428 0.21196,-4.92747 1.31177,-7.1754 1.48023,-3.02548 4.81459,-5.94739 9.25294,-8.10839 3.80874,-1.85444 9.2484,-1.95839 12.74757,-0.2436 8.50406,4.16745 12.23182,15.46717 7.93958,24.06667 -1.4289,2.86279 -5.25593,6.68331 -8.23557,8.22157 -3.10296,1.60192 -9.00967,2.06646 -12.01946,0.94527 z"
         id="path1098"
         inkscape:connector-curvature="0"
         transform="matrix(0.26458333,0,0,0.26458333,285.75,-34.77381)" />
    </g>
  </g>
</svg>
